<?xml version="1.0" standalone="no"?><!DOCTYPE svg PUBLIC "-//W3C//DTD SVG 20010904//EN"
    "http://www.w3.org/TR/2001/REC-SVG-20010904/DTD/svg10.dtd">
<svg version="1.0" xmlns="http://www.w3.org/2000/svg" width="33.000000pt" height="41.000000pt"
    viewBox="0 0 33.000000 41.000000" preserveAspectRatio="xMidYMid meet">
    <metadata>
        Created by potrace 1.16, written by Peter Selinger 2001-2019
    </metadata>
    <g transform="translate(0.000000,41.000000) scale(0.100000,-0.100000)" fill="#000000"
        stroke="none">
        <path d="M205 403 c-25 -6 -135 -112 -135 -130 0 -7 -6 -22 -12 -33 -23 -36
26 -85 62 -62 11 6 25 12 32 12 7 0 30 17 51 38 l38 37 30 -33 c49 -55 31
-134 -39 -168 -42 -19 -82 -11 -118 24 -26 26 -26 27 -5 30 11 2 21 10 21 18
0 11 -15 14 -65 14 -51 0 -65 -3 -65 -15 0 -9 9 -15 24 -15 15 0 30 -10 41
-28 10 -15 27 -35 39 -44 l21 -18 -22 0 c-14 0 -23 -6 -23 -15 0 -12 19 -15
115 -15 96 0 115 3 115 15 0 9 -10 15 -26 15 l-26 0 31 31 c37 36 45 64 38
125 -3 30 -13 55 -31 73 -23 24 -25 30 -15 65 9 34 8 41 -12 62 -23 24 -28 26
-64 17z" />
    </g>
</svg>
