<?xml version="1.0" standalone="no"?><!DOCTYPE svg PUBLIC "-//W3C//DTD SVG 20010904//EN"
    "http://www.w3.org/TR/2001/REC-SVG-20010904/DTD/svg10.dtd">
<svg version="1.0" xmlns="http://www.w3.org/2000/svg" width="42.000000pt" height="31.000000pt"
    viewBox="0 0 42.000000 31.000000" preserveAspectRatio="xMidYMid meet">
    <metadata>
        Created by potrace 1.16, written by Peter Selinger 2001-2019
    </metadata>
    <g transform="translate(0.000000,31.000000) scale(0.100000,-0.100000)" fill="#000000"
        stroke="none">
        <path d="M110 301 c-20 -5 -26 -14 -28 -43 -3 -31 -8 -37 -43 -51 -30 -12 -39
-21 -39 -38 0 -40 51 -158 71 -164 10 -4 45 -1 78 6 47 9 75 9 125 -1 36 -7
70 -9 77 -5 17 11 69 131 69 161 0 21 -8 29 -40 41 -36 14 -40 20 -40 50 0 27
-5 35 -26 43 -28 11 -165 12 -204 1z m163 -27 c27 -5 37 -11 37 -25 0 -14 -7
-19 -25 -19 -34 0 -32 -28 3 -36 64 -14 102 -25 102 -29 0 -2 -11 -30 -25 -62
l-25 -58 -130 0 -130 0 -25 58 c-14 32 -25 60 -25 62 0 4 38 15 103 29 34 8
36 36 2 36 -37 0 -35 37 3 43 46 7 95 7 135 1z" />
        <path d="M170 205 c0 -20 -5 -25 -25 -25 -22 0 -25 -4 -25 -35 0 -31 3 -35 25
-35 20 0 25 -5 25 -25 0 -22 4 -25 35 -25 31 0 35 3 35 25 0 20 5 25 25 25 22
0 25 4 25 35 0 31 -3 35 -25 35 -20 0 -25 5 -25 25 0 22 -4 25 -35 25 -31 0
-35 -3 -35 -25z" />
    </g>
</svg>
